<?xml version="1.0" encoding="utf-8"?>
<!-- Generator: Adobe Illustrator 22.0.1, SVG Export Plug-In . SVG Version: 6.00 Build 0)  -->
<svg version="1.1" id="Calque_1" xmlns="http://www.w3.org/2000/svg" xmlns:xlink="http://www.w3.org/1999/xlink" x="0px" y="0px"
	 viewBox="0 0 141.7 595.3" style="enable-background:new 0 0 141.7 595.3;" xml:space="preserve">
<style type="text/css">
	.st0{display:none;}
	.st1{fill:none;stroke:#FFFFFF;stroke-width:10;stroke-linejoin:bevel;stroke-miterlimit:10;}
</style>
<g id="_x39_9_x5F_Repères" class="st0">
</g>
<g id="_x30_0_x5F_Background">
</g>
<g id="_x30_1_x5F_Alphabet">
</g>
<g id="_x30_2_x5F_Mots">
	<g>
		<polyline class="st1" points="12.5,449.4 12.5,410.9 129.3,410.9 129.3,449.4 		"/>
		<line class="st1" x1="70.9" y1="488" x2="70.9" y2="371.2"/>
		<polyline class="st1" points="12.5,229 12.5,190.4 129.3,190.4 129.3,229 		"/>
		<line class="st1" x1="70.9" y1="267.5" x2="70.9" y2="150.7"/>
		<polyline id="_x5F_S_6_" class="st1" points="7.1,586.9 70.9,586.9 70.9,501.4 134.7,501.4 		"/>
		<polyline id="_x5F_C_7_" class="st1" points="133,14.9 12.5,14.9 12.5,135.4 72.7,135.4 72.7,95.6 		"/>
		<polyline id="_x5F_L_9_" class="st1" points="129.3,319.3 129.3,380.4 129.3,349.9 7.1,349.9 		"/>
		<polyline id="_x5F_L_8_" class="st1" points="129.3,258.2 129.3,319.3 129.3,288.7 7.1,288.7 		"/>
	</g>
</g>
</svg>
