<?xml version="1.0" encoding="utf-8"?>
<!-- Generator: Adobe Illustrator 22.0.1, SVG Export Plug-In . SVG Version: 6.00 Build 0)  -->
<svg version="1.1" id="Calque_1" xmlns="http://www.w3.org/2000/svg" xmlns:xlink="http://www.w3.org/1999/xlink" x="0px" y="0px"
	 viewBox="0 0 141.7 949.6" style="enable-background:new 0 0 141.7 949.6;" xml:space="preserve">
<style type="text/css">
	.st0{display:none;}
	.st1{fill:none;stroke:#FFFFFF;stroke-width:10;stroke-linejoin:bevel;stroke-miterlimit:10;}
</style>
<g id="_x39_9_x5F_Repères" class="st0">
</g>
<g id="_x30_0_x5F_Background">
</g>
<g id="_x30_1_x5F_Alphabet">
</g>
<g id="_x30_2_x5F_Mots">
	<g>
		<polygon id="_x5F_A_4_" class="st1" points="15.1,129.5 15.1,7.3 137.3,68.4 		"/>
		<polyline id="_x5F_C_9_" class="st1" points="137.7,158.5 15.1,158.5 15.1,281.2 76.4,281.2 76.4,240.7 		"/>
		<polyline id="_x5F_C_8_" class="st1" points="137.7,307.7 15.1,307.7 15.1,430.3 76.4,430.3 76.4,389.8 		"/>
		<g id="_x5F_E_4_">
			<polyline class="st1" points="12.8,688.5 12.8,649.9 129.7,649.9 129.7,688.5 			"/>
			<line class="st1" x1="71.3" y1="727.1" x2="71.3" y2="610.2"/>
		</g>
		<polyline id="_x5F_I_6_" class="st1" points="4,881.1 70.9,881.1 70.9,747.4 137.7,747.4 		"/>
		<polyline id="_x5F_L_9_" class="st1" points="129.7,878.5 129.7,941.4 129.7,909.9 4,909.9 		"/>
		<g id="_x5F_U_3_">
			<polyline class="st1" points="14.8,546.8 14.8,457.4 82,457.4 			"/>
			<polyline class="st1" points="37.7,502.4 37.7,591.8 104.9,591.8 			"/>
		</g>
	</g>
</g>
</svg>
