<?xml version="1.0" encoding="utf-8"?>
<!-- Generator: Adobe Illustrator 22.0.1, SVG Export Plug-In . SVG Version: 6.00 Build 0)  -->
<svg version="1.1" id="Calque_1" xmlns="http://www.w3.org/2000/svg" xmlns:xlink="http://www.w3.org/1999/xlink" x="0px" y="0px"
	 viewBox="0 0 141.7 963.8" style="enable-background:new 0 0 141.7 963.8;" xml:space="preserve">
<style type="text/css">
	.st0{display:none;}
	.st1{fill:none;stroke:#FFFFFF;stroke-width:10;stroke-linejoin:bevel;stroke-miterlimit:10;}
</style>
<g id="_x39_9_x5F_Repères" class="st0">
</g>
<g id="_x30_0_x5F_Background">
</g>
<g id="_x30_1_x5F_Alphabet">
</g>
<g id="_x30_2_x5F_Mots">
	<g>
		<polygon id="_x5F_A_4_" class="st1" points="13.3,657.8 13.3,535.6 135.5,596.7 		"/>
		<polyline id="_x5F_C_9_" class="st1" points="136,686.8 13.3,686.8 13.3,809.5 74.6,809.5 74.6,769 		"/>
		<polyline id="_x5F_C_8_" class="st1" points="134.6,8.2 9.8,8.2 9.8,133 72.2,133 72.2,91.8 		"/>
		<polyline id="_x5F_N_5_" class="st1" points="45.9,378.7 127.3,378.7 5.8,257.2 86,257.2 		"/>
		<g id="_x5F_O_4_">
			<polyline class="st1" points="9.8,152.5 9.8,230.5 86.6,230.5 			"/>
			<polyline class="st1" points="126.2,268.9 126.2,192.1 48.2,192.1 			"/>
		</g>
		<g id="_x5F_T_10_">
			<line class="st1" x1="38.8" y1="524.7" x2="38.8" y2="396.4"/>
			<line class="st1" x1="5.8" y1="427.5" x2="136" y2="427.5"/>
		</g>
		<g id="_x5F_T_9_">
			<line class="st1" x1="38.8" y1="955" x2="38.8" y2="826.7"/>
			<line class="st1" x1="5.8" y1="857.8" x2="136" y2="857.8"/>
		</g>
	</g>
</g>
</svg>
