<?xml version="1.0" encoding="utf-8"?>
<!-- Generator: Adobe Illustrator 22.0.1, SVG Export Plug-In . SVG Version: 6.00 Build 0)  -->
<svg version="1.1" id="Calque_1" xmlns="http://www.w3.org/2000/svg" xmlns:xlink="http://www.w3.org/1999/xlink" x="0px" y="0px"
	 viewBox="0 0 141.7 708.7" style="enable-background:new 0 0 141.7 708.7;" xml:space="preserve">
<style type="text/css">
	.st0{display:none;}
	.st1{fill:none;stroke:#FFFFFF;stroke-width:10;stroke-linejoin:bevel;stroke-miterlimit:10;}
</style>
<g id="_x39_9_x5F_Repères" class="st0">
</g>
<g id="_x30_0_x5F_Background">
</g>
<g id="_x30_1_x5F_Alphabet">
</g>
<g id="_x30_2_x5F_Mots">
	<g>
		<g id="_x5F_E_4_">
			<polyline class="st1" points="13.5,466.3 13.5,427.8 130.3,427.8 130.3,466.3 			"/>
			<line class="st1" x1="71.9" y1="504.9" x2="71.9" y2="388.1"/>
		</g>
		<polyline id="_x5F_J_3_" class="st1" points="7.4,328.8 93.3,328.8 93.3,371.8 50.4,371.8 137.6,371.8 		"/>
		<g id="_x5F_O_4_">
			<polyline class="st1" points="13.8,205.3 13.8,283.3 90.6,283.3 			"/>
			<polyline class="st1" points="130.1,321.7 130.1,244.9 52.2,244.9 			"/>
		</g>
		<polyline id="_x5F_P_3_" class="st1" points="95.2,96 13.8,96 13.8,14 137.2,14 		"/>
		<g id="_x5F_R_3_">
			<polyline class="st1" points="13.8,193.1 13.8,131.4 137.2,131.4 			"/>
			<polyline class="st1" points="54.5,116 54.5,116 137.2,176.8 			"/>
		</g>
		<polyline id="_x5F_S_8_" class="st1" points="9.7,694.7 73.4,694.7 73.4,609.2 137.2,609.2 		"/>
		<g id="_x5F_T_6_">
			<line class="st1" x1="40.2" y1="643.3" x2="40.2" y2="515"/>
			<line class="st1" x1="7.2" y1="546.1" x2="137.4" y2="546.1"/>
		</g>
	</g>
</g>
</svg>
